<svg xmlns="http://www.w3.org/2000/svg" width="111" height="51" viewBox="0 0 111 51" fill="none">
  <g filter="url(#filter0_ii_9_298)">
    <path d="M92.7995 3.04575C99.5405 3.244 105.309 7.90437 107.108 14.4235L107.22 14.8286C109.413 22.7758 109.266 31.1635 106.797 38.9789C104.841 45.17 99.1361 49.3674 92.6258 49.3802C83.4523 49.3982 69.278 49.4088 53.2018 49.3601C40.5472 49.3217 27.8408 48.904 18.4495 48.5053C9.79282 48.1377 2.6792 41.5475 1.48084 32.9541L1.41247 32.4638C0.722556 27.5165 0.810601 22.4998 1.67341 17.5964C3.07845 9.61141 9.95289 3.80159 18.0703 3.68592C26.6549 3.5636 38.7595 3.34972 53.1514 2.98169C69.5934 2.56124 83.645 2.77653 92.7995 3.04575Z" fill="url(#paint0_linear_9_298)"/>
  </g>
  <path d="M73.5362 8.49581C78.626 7.34948 84.0176 10.4977 85.0919 15.6324L85.1654 15.9834C86.5894 22.7893 86.4774 29.8091 84.8375 36.5286C83.6439 41.4198 78.355 44.1801 73.4488 42.9353C67.3903 41.3983 58.797 39.815 49.1539 39.8359C41.2063 39.853 33.2091 41.0108 27.0613 42.2042C21.2795 43.3266 15.4327 39.3299 14.8183 33.4487L14.7256 32.5615C14.2026 27.5556 14.2828 22.5123 14.9644 17.5403C15.7169 12.0508 21.6137 8.62192 27.0478 9.80694C32.6677 11.0325 40.2565 12.0648 49.1539 11.7133C58.9626 11.3258 67.488 9.85802 73.5362 8.49581Z" fill="#A7A5A5"/>
  <g filter="url(#filter1_di_9_298)">
    <path fill-rule="evenodd" clip-rule="evenodd" d="M89.352 5.85512C96.8828 6.31849 103.468 11.1872 106.356 18.1885C108.469 23.3104 108.509 29.0654 106.446 34.1587C103.517 41.3885 96.5772 46.1562 88.7504 46.2838C86.3663 46.3227 83.7507 46.3635 80.9921 46.4036C80.6237 46.4089 80.4459 45.9208 80.7103 45.6642C80.9866 45.3962 80.6956 44.9613 80.3207 45.0482C78.8125 45.3976 77.2063 45.4232 75.6229 45.0711C68.8386 43.5627 59.0252 41.9669 47.9651 42.0001C39.2294 42.0264 30.4398 43.3075 23.6155 44.6464C21.475 45.0664 19.3247 44.873 17.3711 44.1915C17.0592 44.0827 16.785 44.4464 17.0118 44.6865C17.2181 44.9047 17.0518 45.2828 16.7523 45.2608C15.1337 45.1416 13.6857 45.0291 12.4547 44.9304C9.73947 44.7126 7.44502 42.8356 6.64755 40.2233L6.36965 39.3129C3.54064 30.0457 3.64873 20.1617 6.67895 11.027C7.46153 8.66791 9.56874 7.01962 12.0542 6.84993C13.4963 6.75147 15.2802 6.63278 17.3405 6.50174C17.7728 6.47425 17.9889 7.09312 17.6636 7.37923C17.337 7.66648 17.6647 8.15888 18.0861 8.05151C19.8606 7.59946 21.7553 7.5358 23.6012 7.93681C29.8473 9.29376 38.2061 10.4141 47.9778 10.0134C58.8563 9.56728 68.3229 7.91216 75.0732 6.36741C76.495 6.04205 77.9389 6.01453 79.3252 6.24523C79.5758 6.28692 79.7278 5.9728 79.5156 5.8332C79.302 5.69265 79.4057 5.3146 79.6611 5.32667C83.157 5.49182 86.4415 5.67605 89.352 5.85512ZM75.342 9.34825C80.1928 8.26945 85.3025 11.2617 86.3534 16.1453L86.4275 16.4898C87.8726 23.2054 87.7599 30.1454 86.098 36.7743C84.932 41.4251 79.9111 44.0498 75.2372 42.8741C69.1921 41.3535 60.4716 39.7466 50.6581 39.7645C42.5561 39.7793 34.4026 40.9535 28.231 42.1365C22.7006 43.1966 17.1312 39.3762 16.527 33.7562L16.4343 32.8943C15.9008 27.9327 15.9818 22.9312 16.6754 18.0037C17.4145 12.753 23.0328 9.47315 28.2325 10.607C33.8628 11.8348 41.5733 12.898 50.6542 12.5515C60.6488 12.1702 69.3037 10.6912 75.342 9.34825Z" fill="url(#paint1_linear_9_298)"/>
  </g>
  <g filter="url(#filter2_di_9_298)">
    <path d="M81.4278 6.43306C82.2971 6.16822 83.2253 6.7108 83.4125 7.60593L87.2586 25.9879C87.3046 26.2076 87.301 26.4342 87.248 26.6511L82.9874 44.11C82.7723 44.9916 81.8297 45.4824 80.9682 45.1798C76.6602 43.6667 64.1819 39.8034 49.1539 39.8359C35.8689 39.8646 22.4457 43.0801 17.7525 44.3222C16.8416 44.5633 15.913 43.9277 15.8147 42.9861L13.9571 25.2059C13.9446 25.086 13.9465 24.9652 13.9629 24.8461L16.1939 8.57181C16.3285 7.58945 17.371 6.99841 18.3085 7.33664C22.582 8.87833 33.9598 12.3135 49.1539 11.7133C64.7715 11.0964 77.1359 7.74053 81.4278 6.43306Z" fill="url(#paint2_linear_9_298)"/>
  </g>
  <g filter="url(#filter3_d_9_298)">
    <g filter="url(#filter4_d_9_298)">
      <mask id="path-5-inside-1_9_298" fill="white">
        <path d="M97.729 45.2617C99.786 44.1448 100.765 42.6531 101.168 41.3234C101.498 40.2335 100.25 39.7849 99.3421 40.4761C97.2614 42.0606 94.6639 43.4922 92.364 44.5946C91.0802 45.2099 91.2653 46.8338 92.6767 46.7124C94.286 46.574 96.0693 46.163 97.729 45.2617Z"/>
      </mask>
      <path d="M97.729 45.2617C99.786 44.1448 100.765 42.6531 101.168 41.3234C101.498 40.2335 100.25 39.7849 99.3421 40.4761C97.2614 42.0606 94.6639 43.4922 92.364 44.5946C91.0802 45.2099 91.2653 46.8338 92.6767 46.7124C94.286 46.574 96.0693 46.163 97.729 45.2617Z" fill="white"/>
      <path d="M101.168 41.3234L105.327 42.5348L101.168 41.3234ZM97.729 45.2617L95.7022 41.435L95.7022 41.435L97.729 45.2617ZM92.6767 46.7124L92.9845 51.0563L92.6767 46.7124ZM92.364 44.5946L90.5361 40.6662L90.5361 40.6662L92.364 44.5946ZM99.3421 40.4761L101.94 43.9336L101.94 43.9336L99.3421 40.4761ZM105.327 42.5348C104.587 44.975 102.845 47.4113 99.7559 49.0884L95.7022 41.435C96.2532 41.1358 96.5516 40.848 96.7152 40.6469C96.8809 40.4432 96.9642 40.2596 97.009 40.1119L105.327 42.5348ZM99.7559 49.0884C97.4333 50.3496 95.0284 50.8805 92.9845 51.0563L92.3689 42.3686C93.5436 42.2675 94.7052 41.9764 95.7022 41.435L99.7559 49.0884ZM90.5361 40.6662C92.7059 39.6263 95.003 38.3448 96.7445 37.0186L101.94 43.9336C99.5198 45.7764 96.622 47.3582 94.1919 48.5229L90.5361 40.6662ZM92.9845 51.0563C91.789 51.1591 90.421 50.917 89.237 50.0413C88.0498 49.1633 87.3737 47.8815 87.1991 46.5691C86.8486 43.9349 88.4348 41.6734 90.5361 40.6662L94.1919 48.5229C95.0093 48.1311 96.0462 46.9891 95.8202 45.2904C95.7078 44.4458 95.2624 43.5856 94.4667 42.9972C93.6743 42.4111 92.8587 42.3264 92.3689 42.3686L92.9845 51.0563ZM97.009 40.1119C96.8357 40.6834 96.7657 41.5714 97.1953 42.5065C97.6169 43.4239 98.335 43.9814 98.9838 44.2548C100.197 44.7661 101.297 44.4227 101.94 43.9336L96.7445 37.0186C98.2943 35.8383 100.473 35.3736 102.455 36.2089C103.488 36.6443 104.513 37.4751 105.104 38.7615C105.703 40.0656 105.665 41.4184 105.327 42.5348L97.009 40.1119Z" fill="white" mask="url(#path-5-inside-1_9_298)"/>
    </g>
  </g>
  <g filter="url(#filter5_d_9_298)">
    <mask id="path-7-inside-2_9_298" fill="white">
      <path d="M97.5708 6.28468C99.7873 7.41857 100.831 8.99288 101.257 10.3918C101.587 11.4786 100.34 11.9544 99.4226 11.2829C97.1592 9.62665 94.3082 8.15455 91.8194 7.04662C90.5225 6.46929 90.6762 4.83479 92.0912 4.90222C93.8186 4.98454 95.7591 5.35785 97.5708 6.28468Z"/>
    </mask>
    <path d="M97.5708 6.28468C99.7873 7.41857 100.831 8.99288 101.257 10.3918C101.587 11.4786 100.34 11.9544 99.4226 11.2829C97.1592 9.62665 94.3082 8.15455 91.8194 7.04662C90.5225 6.46929 90.6762 4.83479 92.0912 4.90222C93.8186 4.98454 95.7591 5.35785 97.5708 6.28468Z" fill="white"/>
    <path d="M101.257 10.3918L97.0916 11.6341L101.257 10.3918ZM97.5708 6.28468L95.6081 10.1596L97.5708 6.28468ZM92.0912 4.90222L91.912 9.25255L92.0912 4.90222ZM91.8194 7.04662L90.0705 11.0238L91.8194 7.04662ZM99.4226 11.2829L96.8666 14.7922L96.8666 14.7922L99.4226 11.2829ZM105.422 9.1495C104.655 6.62597 102.824 4.09303 99.5336 2.40977L95.6081 10.1596C96.2209 10.4731 96.5582 10.7863 96.747 11.0132C96.9387 11.2434 97.0379 11.4573 97.0916 11.6341L105.422 9.1495ZM99.5336 2.40977C97.0274 1.12763 94.4401 0.655291 92.2704 0.551892L91.912 9.25255C93.197 9.31379 94.4909 9.58808 95.6081 10.1596L99.5336 2.40977ZM90.0705 11.0238C92.4281 12.0733 94.9617 13.3983 96.8666 14.7922L101.979 7.77358C99.3567 5.85499 96.1883 4.23583 93.5683 3.06949L90.0705 11.0238ZM92.2704 0.551892C91.0658 0.494486 89.7089 0.792104 88.5551 1.70479C87.4007 2.61795 86.7588 3.90998 86.6116 5.21755C86.3153 7.8481 87.9318 10.0717 90.0705 11.0238L93.5683 3.06949C94.41 3.44421 95.4549 4.56189 95.2651 6.24772C95.171 7.08293 94.7518 7.9429 93.9837 8.5505C93.2162 9.15765 92.4091 9.27624 91.912 9.25255L92.2704 0.551892ZM97.0916 11.6341C96.9179 11.0627 96.8525 10.1873 97.2713 9.26369C97.6817 8.35879 98.3818 7.79714 99.0209 7.51358C100.22 6.98179 101.324 7.29454 101.979 7.77358L96.8666 14.7922C98.4389 15.9427 100.625 16.3533 102.594 15.4798C103.619 15.0254 104.626 14.183 105.206 12.9042C105.794 11.6067 105.761 10.2643 105.422 9.1495L97.0916 11.6341Z" fill="white" mask="url(#path-7-inside-2_9_298)"/>
  </g>
  <g filter="url(#filter6_di_9_298)">
    <path fill-rule="evenodd" clip-rule="evenodd" d="M89.4562 13.1273C88.5095 8.94203 85.0343 5.79292 80.7642 5.47794C74.3652 5.00593 64.094 4.52501 51.8008 4.95457C40.3806 5.35363 30.8321 5.84189 24.5007 6.20405C22.6611 6.30927 20.954 6.89334 19.5018 7.83882C20.9675 7.60124 22.4888 7.62428 23.9771 7.94734C30.0934 9.27498 38.2135 10.3537 47.6807 9.95937C58.2405 9.5195 67.4489 7.90425 74.0751 6.37834C79.8776 5.04209 86.059 8.64179 87.2446 14.5102L87.3545 15.054C88.8824 22.6165 88.7099 30.4041 86.8496 37.85C85.5358 43.1085 79.9575 46.1484 74.6411 44.9596C67.9723 43.4684 58.4184 41.9133 47.6682 41.9461C39.1975 41.972 30.6752 43.2152 24.0009 44.532C22.9607 44.7372 21.9176 44.7982 20.8953 44.7294C22.0552 45.2837 23.3286 45.6378 24.6737 45.7472C31.5519 46.3065 41.5114 46.9379 51.3992 46.9352C63.4363 46.9319 73.9543 46.5985 80.4633 46.3311C84.6125 46.1606 88.1056 43.3036 89.156 39.2948C91.3491 30.9258 91.4919 22.1273 89.5724 13.6412L89.4562 13.1273Z" fill="url(#paint3_linear_9_298)"/>
  </g>
  <g filter="url(#filter7_ii_9_298)">
    <path fill-rule="evenodd" clip-rule="evenodd" d="M86.7491 5.01694C94.5709 5.50866 101.377 10.6257 104.287 17.9371C106.327 23.0622 106.366 28.7749 104.375 33.8672C101.427 41.4102 94.2546 46.4112 86.1265 46.5474C83.8219 46.586 81.3134 46.6262 78.6785 46.6656C78.3309 46.6708 78.166 46.2103 78.4197 45.9728C78.6864 45.7231 78.4156 45.3054 78.0599 45.3884C76.4517 45.7639 74.7369 45.7906 73.0491 45.4098C66.3681 43.9025 56.9553 42.3696 46.3942 42.4027C38.1016 42.4288 29.76 43.647 23.1318 44.9667C20.794 45.4322 18.4392 45.1985 16.3161 44.4142C15.997 44.2963 15.7109 44.6707 15.9461 44.9164C16.158 45.1378 15.9886 45.5245 15.6829 45.5013C14.141 45.384 12.7513 45.2728 11.5538 45.1739C8.68487 44.9369 6.26145 42.9335 5.44576 40.1641L5.17573 39.2473C2.39691 29.8127 2.5025 19.7973 5.47883 10.4981C6.27896 7.9982 8.50294 6.24145 11.1276 6.05649C12.2967 5.9741 13.6767 5.87895 15.2352 5.77508C15.7991 5.73749 16.1113 6.50311 15.7273 6.91777C15.3306 7.34622 15.8345 7.95908 16.3888 7.77541C18.5096 7.07262 20.8393 6.9027 23.0922 7.39066C29.1795 8.70907 37.1531 9.75111 46.4067 9.35505C56.7557 8.91212 65.8139 7.31563 72.4353 5.77535C74.2774 5.34683 76.1589 5.39542 77.9206 5.84266C78.2795 5.93379 78.5514 5.50604 78.2692 5.26613C77.9951 5.03306 78.167 4.53309 78.5263 4.55113C81.4631 4.69859 84.2377 4.85906 86.7491 5.01694ZM72.9251 8.76906C78.0011 7.62351 83.3891 10.7676 84.453 15.8922L84.5251 16.2391C85.9197 22.9562 85.811 29.88 84.2071 36.5111C83.0264 41.3922 77.7441 44.1445 72.8501 42.8981C66.8922 41.3807 58.4848 39.8291 49.0589 39.8469C41.2943 39.8616 33.482 40.9912 27.4481 42.1645C21.6881 43.2846 15.8538 39.3003 15.2458 33.4392L15.1546 32.5595C14.6427 27.6258 14.7204 22.6562 15.3859 17.7562C16.1286 12.2876 22.0113 8.87431 27.4246 10.0564C32.9443 11.2617 40.3659 12.2694 49.055 11.9258C58.6391 11.5468 66.9787 10.111 72.9251 8.76906Z" fill="url(#paint4_linear_9_298)"/>
  </g>
  <g filter="url(#filter8_ii_9_298)">
    <path d="M64.2384 10.374C67.458 20.1957 67.5109 30.7808 64.3896 40.6342L64.2768 40.9904C64.2768 40.9904 58.751 40.1384 47.0082 40.1384C35.3382 40.4653 30.0965 41.6456 30.0965 41.6456L29.8741 40.4584C28.0215 30.5682 28.1216 20.4111 30.169 10.5593C30.169 10.5593 39.1464 11.7935 47.019 11.7235C53.7842 11.6633 64.2384 10.374 64.2384 10.374Z" fill="url(#paint5_linear_9_298)"/>
  </g>
  <defs>
    <filter id="filter0_ii_9_298" x="0.953308" y="-3.0612" width="112.164" height="52.4565" filterUnits="userSpaceOnUse" color-interpolation-filters="sRGB">
      <feFlood flood-opacity="0" result="BackgroundImageFix"/>
      <feBlend mode="normal" in="SourceGraphic" in2="BackgroundImageFix" result="shape"/>
      <feColorMatrix in="SourceAlpha" type="matrix" values="0 0 0 0 0 0 0 0 0 0 0 0 0 0 0 0 0 0 127 0" result="hardAlpha"/>
      <feOffset dx="4.35467" dy="-5.80623"/>
      <feGaussianBlur stdDeviation="17.4187"/>
      <feComposite in2="hardAlpha" operator="arithmetic" k2="-1" k3="1"/>
      <feColorMatrix type="matrix" values="0 0 0 0 0 0 0 0 0 0 0 0 0 0 0 0 0 0 0.07 0"/>
      <feBlend mode="normal" in2="shape" result="effect1_innerShadow_9_298"/>
      <feColorMatrix in="SourceAlpha" type="matrix" values="0 0 0 0 0 0 0 0 0 0 0 0 0 0 0 0 0 0 127 0" result="hardAlpha"/>
      <feOffset dy="-0.725779"/>
      <feGaussianBlur stdDeviation="1.45156"/>
      <feComposite in2="hardAlpha" operator="arithmetic" k2="-1" k3="1"/>
      <feColorMatrix type="matrix" values="0 0 0 0 0 0 0 0 0 0 0 0 0 0 0 0 0 0 0.25 0"/>
      <feBlend mode="normal" in2="effect1_innerShadow_9_298" result="effect2_innerShadow_9_298"/>
    </filter>
    <filter id="filter1_di_9_298" x="1.42116" y="5.32639" width="107.297" height="43.9803" filterUnits="userSpaceOnUse" color-interpolation-filters="sRGB">
      <feFlood flood-opacity="0" result="BackgroundImageFix"/>
      <feColorMatrix in="SourceAlpha" type="matrix" values="0 0 0 0 0 0 0 0 0 0 0 0 0 0 0 0 0 0 127 0" result="hardAlpha"/>
      <feOffset dy="0.750549"/>
      <feGaussianBlur stdDeviation="0.375275"/>
      <feColorMatrix type="matrix" values="0 0 0 0 0.925374 0 0 0 0 0.925374 0 0 0 0 0.925374 0 0 0 0.37 0"/>
      <feBlend mode="normal" in2="BackgroundImageFix" result="effect1_dropShadow_9_298"/>
      <feBlend mode="normal" in="SourceGraphic" in2="effect1_dropShadow_9_298" result="shape"/>
      <feColorMatrix in="SourceAlpha" type="matrix" values="0 0 0 0 0 0 0 0 0 0 0 0 0 0 0 0 0 0 127 0" result="hardAlpha"/>
      <feOffset dx="-2.90311" dy="3.62889"/>
      <feGaussianBlur stdDeviation="1.45156"/>
      <feComposite in2="hardAlpha" operator="arithmetic" k2="-1" k3="1"/>
      <feColorMatrix type="matrix" values="0 0 0 0 0 0 0 0 0 0 0 0 0 0 0 0 0 0 0.8 0"/>
      <feBlend mode="normal" in2="shape" result="effect2_innerShadow_9_298"/>
    </filter>
    <filter id="filter2_di_9_298" x="11.0459" y="6.36575" width="76.9953" height="41.8068" filterUnits="userSpaceOnUse" color-interpolation-filters="sRGB">
      <feFlood flood-opacity="0" result="BackgroundImageFix"/>
      <feColorMatrix in="SourceAlpha" type="matrix" values="0 0 0 0 0 0 0 0 0 0 0 0 0 0 0 0 0 0 127 0" result="hardAlpha"/>
      <feOffset dy="0.750549"/>
      <feGaussianBlur stdDeviation="0.375275"/>
      <feColorMatrix type="matrix" values="0 0 0 0 0.925374 0 0 0 0 0.925374 0 0 0 0 0.925374 0 0 0 0.37 0"/>
      <feBlend mode="normal" in2="BackgroundImageFix" result="effect1_dropShadow_9_298"/>
      <feBlend mode="normal" in="SourceGraphic" in2="effect1_dropShadow_9_298" result="shape"/>
      <feColorMatrix in="SourceAlpha" type="matrix" values="0 0 0 0 0 0 0 0 0 0 0 0 0 0 0 0 0 0 127 0" result="hardAlpha"/>
      <feOffset dx="-2.90312" dy="3.62889"/>
      <feGaussianBlur stdDeviation="1.45156"/>
      <feComposite in2="hardAlpha" operator="arithmetic" k2="-1" k3="1"/>
      <feColorMatrix type="matrix" values="0 0 0 0 0 0 0 0 0 0 0 0 0 0 0 0 0 0 0.8 0"/>
      <feBlend mode="normal" in2="shape" result="effect2_innerShadow_9_298"/>
    </filter>
    <filter id="filter3_d_9_298" x="90.0495" y="37.2431" width="12.6243" height="9.47575" filterUnits="userSpaceOnUse" color-interpolation-filters="sRGB">
      <feFlood flood-opacity="0" result="BackgroundImageFix"/>
      <feColorMatrix in="SourceAlpha" type="matrix" values="0 0 0 0 0 0 0 0 0 0 0 0 0 0 0 0 0 0 127 0" result="hardAlpha"/>
      <feOffset dy="-1.45156"/>
      <feGaussianBlur stdDeviation="0.725779"/>
      <feColorMatrix type="matrix" values="0 0 0 0 0 0 0 0 0 0 0 0 0 0 0 0 0 0 0.25 0"/>
      <feBlend mode="normal" in2="BackgroundImageFix" result="effect1_dropShadow_9_298"/>
      <feBlend mode="normal" in="SourceGraphic" in2="effect1_dropShadow_9_298" result="shape"/>
    </filter>
    <filter id="filter4_d_9_298" x="90.7753" y="40.1462" width="11.1727" height="8.02419" filterUnits="userSpaceOnUse" color-interpolation-filters="sRGB">
      <feFlood flood-opacity="0" result="BackgroundImageFix"/>
      <feColorMatrix in="SourceAlpha" type="matrix" values="0 0 0 0 0 0 0 0 0 0 0 0 0 0 0 0 0 0 127 0" result="hardAlpha"/>
      <feOffset dy="0.725779"/>
      <feGaussianBlur stdDeviation="0.362889"/>
      <feColorMatrix type="matrix" values="0 0 0 0 1 0 0 0 0 1 0 0 0 0 1 0 0 0 0.25 0"/>
      <feBlend mode="normal" in2="BackgroundImageFix" result="effect1_dropShadow_9_298"/>
      <feBlend mode="normal" in="SourceGraphic" in2="effect1_dropShadow_9_298" result="shape"/>
    </filter>
    <filter id="filter5_d_9_298" x="89.4806" y="1.99709" width="13.282" height="9.59562" filterUnits="userSpaceOnUse" color-interpolation-filters="sRGB">
      <feFlood flood-opacity="0" result="BackgroundImageFix"/>
      <feColorMatrix in="SourceAlpha" type="matrix" values="0 0 0 0 0 0 0 0 0 0 0 0 0 0 0 0 0 0 127 0" result="hardAlpha"/>
      <feOffset dy="-1.45156"/>
      <feGaussianBlur stdDeviation="0.725779"/>
      <feColorMatrix type="matrix" values="0 0 0 0 0 0 0 0 0 0 0 0 0 0 0 0 0 0 0.25 0"/>
      <feBlend mode="normal" in2="BackgroundImageFix" result="effect1_dropShadow_9_298"/>
      <feBlend mode="normal" in="SourceGraphic" in2="effect1_dropShadow_9_298" result="shape"/>
    </filter>
    <filter id="filter6_di_9_298" x="16.5986" y="4.78763" width="75.0655" height="45.0507" filterUnits="userSpaceOnUse" color-interpolation-filters="sRGB">
      <feFlood flood-opacity="0" result="BackgroundImageFix"/>
      <feColorMatrix in="SourceAlpha" type="matrix" values="0 0 0 0 0 0 0 0 0 0 0 0 0 0 0 0 0 0 127 0" result="hardAlpha"/>
      <feOffset dy="0.750549"/>
      <feGaussianBlur stdDeviation="0.375275"/>
      <feColorMatrix type="matrix" values="0 0 0 0 0.925374 0 0 0 0 0.925374 0 0 0 0 0.925374 0 0 0 0.37 0"/>
      <feBlend mode="normal" in2="BackgroundImageFix" result="effect1_dropShadow_9_298"/>
      <feBlend mode="normal" in="SourceGraphic" in2="effect1_dropShadow_9_298" result="shape"/>
      <feColorMatrix in="SourceAlpha" type="matrix" values="0 0 0 0 0 0 0 0 0 0 0 0 0 0 0 0 0 0 127 0" result="hardAlpha"/>
      <feOffset dx="-2.90311" dy="3.62889"/>
      <feGaussianBlur stdDeviation="1.45156"/>
      <feComposite in2="hardAlpha" operator="arithmetic" k2="-1" k3="1"/>
      <feColorMatrix type="matrix" values="0 0 0 0 0 0 0 0 0 0 0 0 0 0 0 0 0 0 0.8 0"/>
      <feBlend mode="normal" in2="shape" result="effect2_innerShadow_9_298"/>
    </filter>
    <filter id="filter7_ii_9_298" x="3.16638" y="-1.25557" width="107.031" height="47.9212" filterUnits="userSpaceOnUse" color-interpolation-filters="sRGB">
      <feFlood flood-opacity="0" result="BackgroundImageFix"/>
      <feBlend mode="normal" in="SourceGraphic" in2="BackgroundImageFix" result="shape"/>
      <feColorMatrix in="SourceAlpha" type="matrix" values="0 0 0 0 0 0 0 0 0 0 0 0 0 0 0 0 0 0 127 0" result="hardAlpha"/>
      <feOffset dx="4.35467" dy="-5.80623"/>
      <feGaussianBlur stdDeviation="17.4187"/>
      <feComposite in2="hardAlpha" operator="arithmetic" k2="-1" k3="1"/>
      <feColorMatrix type="matrix" values="0 0 0 0 0 0 0 0 0 0 0 0 0 0 0 0 0 0 0.07 0"/>
      <feBlend mode="normal" in2="shape" result="effect1_innerShadow_9_298"/>
      <feColorMatrix in="SourceAlpha" type="matrix" values="0 0 0 0 0 0 0 0 0 0 0 0 0 0 0 0 0 0 127 0" result="hardAlpha"/>
      <feOffset dy="-0.725779"/>
      <feGaussianBlur stdDeviation="1.45156"/>
      <feComposite in2="hardAlpha" operator="arithmetic" k2="-1" k3="1"/>
      <feColorMatrix type="matrix" values="0 0 0 0 0 0 0 0 0 0 0 0 0 0 0 0 0 0 0.09 0"/>
      <feBlend mode="normal" in2="effect1_innerShadow_9_298" result="effect2_innerShadow_9_298"/>
    </filter>
    <filter id="filter8_ii_9_298" x="28.5553" y="4.56773" width="42.4919" height="37.0779" filterUnits="userSpaceOnUse" color-interpolation-filters="sRGB">
      <feFlood flood-opacity="0" result="BackgroundImageFix"/>
      <feBlend mode="normal" in="SourceGraphic" in2="BackgroundImageFix" result="shape"/>
      <feColorMatrix in="SourceAlpha" type="matrix" values="0 0 0 0 0 0 0 0 0 0 0 0 0 0 0 0 0 0 127 0" result="hardAlpha"/>
      <feOffset dx="4.35467" dy="-5.80623"/>
      <feGaussianBlur stdDeviation="17.4187"/>
      <feComposite in2="hardAlpha" operator="arithmetic" k2="-1" k3="1"/>
      <feColorMatrix type="matrix" values="0 0 0 0 0 0 0 0 0 0 0 0 0 0 0 0 0 0 0.07 0"/>
      <feBlend mode="normal" in2="shape" result="effect1_innerShadow_9_298"/>
      <feColorMatrix in="SourceAlpha" type="matrix" values="0 0 0 0 0 0 0 0 0 0 0 0 0 0 0 0 0 0 127 0" result="hardAlpha"/>
      <feOffset dy="-0.725779"/>
      <feGaussianBlur stdDeviation="1.45156"/>
      <feComposite in2="hardAlpha" operator="arithmetic" k2="-1" k3="1"/>
      <feColorMatrix type="matrix" values="0 0 0 0 0 0 0 0 0 0 0 0 0 0 0 0 0 0 0.25 0"/>
      <feBlend mode="normal" in2="effect1_innerShadow_9_298" result="effect2_innerShadow_9_298"/>
    </filter>
    <linearGradient id="paint0_linear_9_298" x1="5.58173" y1="21.6912" x2="14.4856" y2="-10.731" gradientUnits="userSpaceOnUse">
      <stop stop-color="#D8D8D8"/>
      <stop offset="1" stop-color="white"/>
    </linearGradient>
    <linearGradient id="paint1_linear_9_298" x1="-193.68" y1="44.846" x2="-155.338" y2="-57.6623" gradientUnits="userSpaceOnUse">
      <stop stop-color="#E8EAE9"/>
      <stop offset="0.498386" stop-color="#707072"/>
      <stop offset="1" stop-color="#2F3032"/>
    </linearGradient>
    <linearGradient id="paint2_linear_9_298" x1="-126.476" y1="39.8095" x2="-77.5871" y2="-49.333" gradientUnits="userSpaceOnUse">
      <stop stop-color="#E8EAE9"/>
      <stop offset="0.498386" stop-color="#707072"/>
      <stop offset="1" stop-color="#2F3032"/>
    </linearGradient>
    <linearGradient id="paint3_linear_9_298" x1="-116.926" y1="45.3289" x2="-65.9731" y2="-46.1662" gradientUnits="userSpaceOnUse">
      <stop stop-color="#E8EAE9"/>
      <stop offset="0.498386" stop-color="#707072"/>
      <stop offset="1" stop-color="#2F3032"/>
    </linearGradient>
    <linearGradient id="paint4_linear_9_298" x1="7.98125" y1="22.9318" x2="14.9648" y2="-6.2866" gradientUnits="userSpaceOnUse">
      <stop stop-color="#D8D8D8"/>
      <stop offset="1" stop-color="white"/>
    </linearGradient>
    <linearGradient id="paint5_linear_9_298" x1="20.2044" y1="36.99" x2="33.4164" y2="4.83393" gradientUnits="userSpaceOnUse">
      <stop stop-color="#D2D2D2"/>
      <stop offset="0.350909" stop-color="#CACACA"/>
      <stop offset="1" stop-color="#F6F6F6"/>
    </linearGradient>
  </defs>
</svg>