<svg xmlns:xlink="http://www.w3.org/1999/xlink" xmlns="http://www.w3.org/2000/svg" width="429" height="85.55545078241032" viewBox="0 0 370.18518518518516 73.82601489857473" class="css-1j8o68f"><defs id="SvgjsDefs2937"></defs><g id="SvgjsG2938" featurekey="symbolFeature-0" transform="matrix(0.05802449667482923,0,0,0.05802449667482923,-0.027561630386896664,-0.027561630386896664)" fill="#FFFFFF"><g xmlns="http://www.w3.org/2000/svg" fill="#FFFFFF">    <path d="M559,1102.5l10.6-10.6L36.7,559L559,36.7L1081.2,559l-532.8,532.8L559,1102.5l10.6-10.6L559,1102.5l10.6,10.6l543.4-543.4   c2.8-2.8,4.4-6.7,4.4-10.6c0-4-1.6-7.8-4.4-10.6L569.6,4.9c-5.9-5.9-15.4-5.9-21.2,0L4.9,548.4c-5.9,5.9-5.9,15.4,0,21.2   l543.5,543.5c2.8,2.8,6.7,4.4,10.6,4.4s7.8-1.6,10.6-4.4L559,1102.5z" fill="#FFFFFF"></path>    <path d="M559,937.8l10.6,10.6l378.8-378.7c2.8-2.8,4.4-6.7,4.4-10.6c0-4-1.6-7.8-4.4-10.6L569.6,169.6c-2.8-2.8-6.7-4.4-10.6-4.4   c-4,0-7.8,1.6-10.6,4.4L169.7,548.4c-5.9,5.9-5.9,15.4,0,21.2l378.7,378.8c2.8,2.8,6.7,4.4,10.6,4.4c4,0,7.8-1.6,10.6-4.4   L559,937.8l10.6-10.6L201.5,559L559,201.5L916.6,559L548.4,927.2L559,937.8l10.6-10.6L559,937.8z M773.1,559l-10.6-10.6L559,751.9   L366.2,559L559,366.2l203.4,203.5L773.1,559l-10.6-10.6L773.1,559l10.6-10.6l-214-214.1c-2.8-2.8-6.7-4.4-10.6-4.4   c-4,0-7.8,1.6-10.6,4.4L334.4,548.4c-5.9,5.9-5.9,15.4,0,21.2l214,214c5.9,5.9,15.4,5.9,21.2,0l214.1-214c5.9-5.9,5.9-15.4,0-21.2   L773.1,559z" fill="#FFFFFF"></path>    <path d="M509.7,559l10.6,10.6l38.8-38.8l28.2,28.2l-28.2,28.2l-38.8-38.8L509.7,559l10.6,10.6L509.7,559l-10.6,10.6l49.4,49.4   c2.8,2.8,6.7,4.4,10.6,4.4c4,0,7.8-1.6,10.6-4.4l49.4-49.4c2.8-2.8,4.4-6.7,4.4-10.6c0-4-1.6-7.8-4.4-10.6l-49.4-49.4   c-5.9-5.9-15.4-5.9-21.2,0l-49.4,49.4c-5.9,5.9-5.9,15.4,0,21.2L509.7,559z" fill="#FFFFFF"></path>    <path d="M559,1102.4l10.6-10.6L103.8,626.1c-5.9-5.9-15.4-5.9-21.2,0L5,703.7c-2.8,2.8-4.4,6.7-4.4,10.6c0,4,1.6,7.8,4.4,10.6   l543.4,543.5c2.8,2.8,6.7,4.4,10.6,4.4c4,0,7.8-1.6,10.6-4.4l543.5-543.5c2.8-2.8,4.4-6.7,4.4-10.6c0-4-1.6-7.8-4.4-10.6   l-77.6-77.6c-5.9-5.9-15.4-5.9-21.2,0l-465.8,465.8L559,1102.4l10.6-10.6L559,1102.4l10.6,10.6l455.2-455.2l56.4,56.4L559,1236.5   L36.8,714.3l56.4-56.4l455.2,455.2c5.9,5.9,15.4,5.9,21.2,0L559,1102.4z" fill="#FFFFFF"></path></g></g><g id="SvgjsG2939" featurekey="nameFeature-0" transform="matrix(1.0001661224835325,0,0,1.0001661224835325,83.28171418951754,11.611480274112562)" fill="#FFFFFF"><path d="M16.152 40.39063 c-8.3008 0 -14.434 -5.6445 -14.434 -14.512 s6.1328 -14.492 14.434 -14.492 c6.2891 0 11.328 3.2227 13.34 8.5742 l-5.4688 1.9922 c-1.25 -3.2813 -4.2383 -5.1758 -7.8711 -5.1758 c-4.8633 0 -8.5938 3.3984 -8.5938 9.1016 s3.7305 9.1211 8.5938 9.1211 c3.6328 0 6.6211 -1.9141 7.8711 -5.1953 l5.4688 1.9922 c-2.0117 5.3516 -7.0508 8.5938 -13.34 8.5938 z M46.79653125 40.39063 c-8.3008 0 -14.434 -5.6641 -14.434 -14.512 c0 -8.8672 6.1328 -14.492 14.434 -14.492 c8.2813 0 14.414 5.625 14.414 14.492 c0 8.8477 -6.1328 14.512 -14.414 14.512 z M46.79653125 35.0195 c4.8633 0 8.5938 -3.418 8.5938 -9.1406 c0 -5.7031 -3.7305 -9.1016 -8.5938 -9.1016 s-8.5938 3.3984 -8.5938 9.1016 c0 5.7227 3.7305 9.1406 8.5938 9.1406 z M85.87921875 11.777000000000001 l5.8398 0 l0 28.223 l-6.7773 0 l-12.5 -20.176 l0 20.176 l-5.8398 0 l0 -28.223 l6.6992 0 l12.578 20.059 l0 -20.059 z M115.39109375 11.777000000000001 l0 5.1563 l-6.6992 0 l0 23.066 l-5.8008 0 l0 -23.066 l-6.7383 0 l0 -5.1563 l19.238 0 z M136.191875 16.934 l-10.469 0 l0 6.4063 l9.2773 0 l0 5.0977 l-9.2773 0 l0 6.3867 l10.469 0 l0 5.1758 l-16.367 0 l0 -28.223 l16.367 0 l0 5.1563 z M161.50421875 11.777000000000001 l5.8398 0 l0 28.223 l-6.7773 0 l-12.5 -20.176 l0 20.176 l-5.8398 0 l0 -28.223 l6.6992 0 l12.578 20.059 l0 -20.059 z M191.01609375 11.777000000000001 l0 5.1563 l-6.6992 0 l0 23.066 l-5.8008 0 l0 -23.066 l-6.7383 0 l0 -5.1563 l19.238 0 z M201.308575 34.8242 l8.8477 0 l0 5.1758 l-14.707 0 l0 -28.223 l5.8594 0 l0 23.047 z M230.9965625 16.934 l-10.469 0 l0 6.4063 l9.2773 0 l0 5.0977 l-9.2773 0 l0 6.3867 l10.469 0 l0 5.1758 l-16.367 0 l0 -28.223 l16.367 0 l0 5.1563 z M255.91790625 40 l-2.0508 -5.8203 l-11.855 0 l-2.0508 5.8203 l-5.9961 0 l10.391 -28.223 l7.168 0 l10.391 28.223 l-5.9961 0 z M243.73090625 29.277 l8.418 0 l-4.1992 -11.973 z M277.891 11.777000000000001 c5.5273 0 8.9648 4.1016 8.9648 9.1211 c0 5.1367 -3.4375 8.9844 -8.9648 8.9844 l-5.8789 0 l0 10.117 l-5.8594 0 l0 -28.223 l11.738 0 z M276.914 24.98 c2.9297 0 4.2969 -1.6211 4.2969 -4.1602 c0 -2.4414 -1.3672 -4.1406 -4.2969 -4.1406 l-4.9023 0 l0 8.3008 l4.9023 0 z" fill="#FFFFFF"></path></g></svg>